<svg xmlns="http://www.w3.org/2000/svg" xmlns:xlink="http://www.w3.org/1999/xlink" version="1.1" x="0px" y="0px" viewBox="0 0 110 137.5" enable-background="new 0 0 110 110" xml:space="preserve"><g><g><path d="M39,76.75h-4V91c0,4.4,3.6,8,8,8h52c4.4,0,8-3.6,8-8V19c0-4.4-3.6-8-8-8H43c-4.4,0-8,3.6-8,8v14.25h4V19    c0-2.21,1.79-4,4-4h52c2.21,0,4,1.79,4,4v72c0,2.21-1.79,4-4,4H43c-2.21,0-4-1.79-4-4V76.75z"/></g><g><path d="M43,27h52c1.1,0,2-0.9,2-2s-0.9-2-2-2H43c-1.1,0-2,0.9-2,2S41.9,27,43,27z"/></g><g><path d="M97,35c0-1.1-0.9-2-2-2H64v4h31C96.1,37,97,36.1,97,35z"/></g><g><path d="M97,45c0-1.1-0.9-2-2-2H69v4h26C96.1,47,97,46.1,97,45z"/></g><g><path d="M97,55c0-1.1-0.9-2-2-2H73v4h22C96.1,57,97,56.1,97,55z"/></g><g><path d="M97,65c0-1.1-0.9-2-2-2H69v4h26C96.1,67,97,66.1,97,65z"/></g><g><path d="M97,75c0-1.1-0.9-2-2-2H64v4h31C96.1,77,97,76.1,97,75z"/></g><g><path d="M97,85c0-1.1-0.9-2-2-2H43c-1.1,0-2,0.9-2,2s0.9,2,2,2h52C96.1,87,97,86.1,97,85z"/></g><g><rect x="58" y="41" width="4" height="28"/></g><g><rect x="64" y="50" width="4" height="10"/></g><g><rect x="52" y="33" width="4" height="44"/></g><g><rect x="46" y="37" width="4" height="36"/></g><g><rect x="40" y="42" width="4" height="26"/></g><g><rect x="34" y="47" width="4" height="17"/></g><g><rect x="28" y="43" width="4" height="24"/></g><g><rect x="22" y="29" width="4" height="52"/></g><g><rect x="16" y="34" width="4" height="42"/></g><g><rect x="10" y="40" width="4" height="30"/></g><g><rect x="4" y="42.5" width="4" height="25"/></g></g><text x="0" y="125" fill="#000000" font-size="5px" font-weight="bold" font-family="'Helvetica Neue', Helvetica, Arial-Unicode, Arial, Sans-serif">Created by Trevor Dsouza</text><text x="0" y="130" fill="#000000" font-size="5px" font-weight="bold" font-family="'Helvetica Neue', Helvetica, Arial-Unicode, Arial, Sans-serif">from the Noun Project</text></svg>