<svg xmlns="http://www.w3.org/2000/svg" width="2666.559" height="2666.559" fill-rule="evenodd" clip-rule="evenodd" image-rendering="optimizeQuality" shape-rendering="geometricPrecision" text-rendering="geometricPrecision" viewBox="0 0 70553 70553" id="speech-recognition"><path fill-rule="nonzero" d="M35276 21507c3728,0 6775,3047 6775,6774l0 10448c0,3727 -3047,6774 -6775,6774 -3727,0 -6774,-3047 -6774,-6774l0 -10448c0,-3727 3047,-6774 6774,-6774zm2056 30213l0 5454 1362 0c1839,0 3104,1882 2382,3590 -113,269 -373,430 -648,430l0 3 -10074 0c-318,0 -587,-211 -675,-500 -53,-136 -95,-277 -125,-425 -327,-1612 916,-3098 2534,-3098l1593 0 0 -5383c-5775,-788 -10118,-5741 -10118,-11604l0 -4222 -73 3c-733,32 -1402,-378 -1716,-1024l-1401 6139c-222,980 -1193,1597 -2175,1376 -406,-91 -750,-313 -998,-611 -252,-302 -405,-684 -422,-1088l-465 -5185 -1478 4704c-299,958 -1323,1497 -2282,1199 -379,-118 -691,-348 -913,-642 -221,-293 -351,-652 -365,-1030l-700 -7700 -2897 0c-1008,0 -1825,-818 -1825,-1826 0,-1008 817,-1826 1825,-1826l4557 0c43,0 85,4 126,11 420,29 806,201 1101,471 324,295 542,708 585,1180l36 394 1484 -4727c8,-24 17,-48 27,-71 114,-317 314,-596 574,-805 681,-548 1644,-533 2310,27 372,313 623,776 647,1294l255 2843 345 -1514c60,-333 208,-642 428,-891 940,-1066 2703,-689 3115,686l1482 4917 530 -27c1057,-63 1935,775 1935,1821l0 6124c0,2172 851,4190 2361,5701 3151,3151 8252,3148 11401,0 1510,-1511 2361,-3529 2361,-5701l0 -6124c0,-1046 878,-1884 1935,-1821l530 27 1482 -4917c289,-963 1302,-1514 2268,-1227 340,102 628,293 847,541 219,249 368,558 427,891l346 1514 260 -2902 -2 -1c86,-995 975,-1743 1971,-1657 372,32 709,176 983,396 260,209 460,488 574,805 10,23 19,47 26,71l1485 4727 36 -394c43,-472 261,-885 585,-1180 295,-270 680,-442 1101,-471 41,-7 83,-11 126,-11l4556 0c1008,0 1826,818 1826,1826 0,1008 -817,1826 -1826,1826l-2896 0 -700 7700c-15,378 -145,737 -365,1030 -538,713 -1512,928 -2300,514 -415,-217 -746,-591 -895,-1071l-1478 -4704 -466 5185c-17,404 -169,786 -421,1088 -585,702 -1600,861 -2370,374 -394,-249 -693,-649 -803,-1139l-1401 -6139c-315,646 -983,1056 -1717,1024l-73 -3 0 4222c0,5684 -4091,10547 -9657,11533zm-1411 6160l0 -6768 0 0c0,-351 262,-656 620,-700 3678,-449 6845,-2869 8259,-6283 501,-1211 778,-2542 778,-3942l0 -4957 2 0c1,-400 334,-720 734,-703l809 35c188,8 360,-114 413,-292 4,-13 8,-25 12,-37l661 -2192 1 1c70,-236 262,-428 520,-486 379,-85 755,153 840,532l1982 8686c77,339 507,432 721,176 57,-70 92,-157 96,-250l1 0c0,-11 1,-22 2,-33l779 -8678c5,-296 197,-568 495,-661 371,-115 766,92 882,463l2535 8070c103,332 528,388 725,126 53,-70 84,-153 85,-238l0 0c1,-16 2,-33 3,-49l755 -8303c2,-388 317,-702 705,-702l3538 0c369,0 554,-448 294,-708 -75,-75 -179,-122 -294,-122l-4556 2c-209,0 -393,164 -412,376l-350 3849c-6,294 -198,564 -495,656 -371,116 -766,-91 -882,-463l-2520 -8025c-39,-106 -61,-179 -156,-256 -238,-191 -636,-66 -667,286l-2 -1 -656 7297c-12,311 -231,587 -548,658 -379,86 -756,-152 -841,-531l-1334 -5848c-25,-103 -25,-167 -113,-267 -210,-238 -612,-160 -707,157l-1640 5442 -1 -1c-89,302 -375,516 -704,502l-976 -42 -151 -8c-229,0 -414,186 -414,415l0 6124c0,5229 -4244,9473 -9473,9473 -5277,0 -9472,-4290 -9472,-9473l0 -6124c0,-251 -220,-442 -467,-412l-1 -1c-17,2 -34,3 -52,4l-980 42c-330,34 -648,-170 -747,-499l-1640 -5442c-95,-317 -496,-395 -706,-157 -53,60 -88,131 -100,206l0 0c-3,13 -5,27 -8,41l-1339 5868 -1 -1c-65,291 -312,519 -625,546 -387,34 -727,-253 -761,-639l-652 -7265c-19,-141 -32,-245 -151,-345 -213,-179 -569,-97 -659,194 -6,19 -13,38 -21,57l-2521 8025 -1 0c-82,263 -316,465 -608,491 -386,35 -728,-250 -763,-637l-354 -3896c-19,-201 -191,-363 -374,-374l-115 -4 -4480 0c-368,0 -553,448 -293,709 75,75 179,121 293,121l3538 0 0 3c360,-1 667,274 700,639l760 8355c10,110 3,181 89,295 197,262 621,206 725,-126l2535 -8070 1 1c83,-264 318,-466 611,-491 386,-34 727,253 760,639l781 8694c14,121 8,203 102,316 213,256 644,163 721,-176l1973 -8646c150,-763 1164,-775 1370,-87l672 2229c53,178 225,300 414,292l754 -33c28,-3 56,-5 85,-5 390,0 706,316 706,706l0 4957c0,2772 1089,5357 3017,7285 855,855 1857,1560 2963,2071 1067,494 2233,810 3461,911 376,16 676,325 676,705l0 6721c0,389 -316,705 -706,705l-2298 0c-653,0 -1186,539 -1176,1201l8959 0c10,-662 -524,-1201 -1177,-1201l-2067 0c-390,0 -706,-316 -706,-705zm-3115 -37695c-89,448 -371,844 -738,1058 -759,455 -1703,242 -2185,-480l-1 1c-229,-343 -327,-774 -240,-1210 4,-23 10,-45 16,-66 136,-638 374,-1233 695,-1766 1805,-2998 5852,-3700 8561,-1485 1005,822 1750,2024 1994,3317l3 0c87,436 -11,867 -240,1210 -490,735 -1500,943 -2235,448l-1 -1 -1 1c-366,-244 -616,-616 -696,-1079 -59,-265 -161,-515 -299,-742 -619,-1021 -1879,-1476 -3011,-1073 -822,292 -1452,1010 -1625,1867l3 0zm-1470 -147c44,-29 76,-74 87,-128l2 0c165,-875 687,-1706 1367,-2263 1841,-1504 4600,-1042 5849,1017 218,359 379,756 472,1177 22,84 27,146 103,197l0 1c150,98 347,-31 311,-210l3 0c-407,-2020 -2190,-3479 -4254,-3479 -1529,0 -2933,800 -3715,2099 -245,407 -425,853 -527,1325 -13,79 -26,137 22,208l-2 0c63,92 188,119 282,56zm-1310 -3447c-363,940 -1413,1405 -2353,1042 -939,-363 -1406,-1415 -1042,-2354 1756,-4529 6730,-6947 11381,-5509 1792,554 3368,1639 4527,3099 573,721 1041,1532 1382,2410l0 0c182,470 157,968 -31,1392 -406,917 -1484,1336 -2402,930 -426,-188 -780,-540 -962,-1010 -616,-1589 -1954,-2834 -3584,-3336 -1638,-504 -3433,-233 -4840,729 -934,639 -1665,1552 -2076,2607zm-1529 -279c97,-43 177,-122 217,-228 1046,-2698 3655,-4487 6562,-4487 2908,0 5517,1789 6562,4487 130,336 612,359 762,19 44,-99 50,-210 9,-317 -287,-739 -685,-1426 -1172,-2041 -2570,-3236 -7193,-3936 -10596,-1607 -1302,891 -2326,2172 -2898,3648 -128,332 207,679 554,526zm6779 6606c-2948,0 -5363,2415 -5363,5363l0 10448c0,2948 2415,5363 5363,5363 2949,0 5364,-2415 5364,-5363l0 -10448c0,-2948 -2415,-5363 -5364,-5363z"></path></svg>