<svg xmlns="http://www.w3.org/2000/svg" xmlns:xlink="http://www.w3.org/1999/xlink" version="1.1" width="256" height="256" viewBox="0 0 256 256" xml:space="preserve">

<defs>
</defs>
<g style="stroke: none; stroke-width: 0; stroke-dasharray: none; stroke-linecap: butt; stroke-linejoin: miter; stroke-miterlimit: 10; fill: none; fill-rule: nonzero; opacity: 1;" transform="translate(1.4065934065934016 1.4065934065934016) scale(2.81 2.81)" >
	<path d="M 80.162 75.737 C 86.514 69.033 90 60.295 90 51.021 c 0 -15.995 -10.687 -30.165 -26.021 -34.569 C 57.38 8.264 47.278 3.011 35.967 3.011 C 16.135 3.011 0 19.146 0 38.978 c 0 9.273 3.486 18.01 9.837 24.716 l -9.544 9.544 c -0.286 0.286 -0.372 0.716 -0.217 1.09 S 0.596 74.945 1 74.945 h 26.187 c 6.828 7.655 16.581 12.044 26.845 12.044 H 89 c 0.404 0 0.77 -0.243 0.924 -0.617 c 0.155 -0.374 0.069 -0.804 -0.217 -1.09 L 80.162 75.737 z M 11.949 64.411 c 0.391 -0.391 0.391 -1.023 0 -1.414 C 5.533 56.581 2 48.051 2 38.978 C 2 20.249 17.238 5.011 35.967 5.011 c 18.73 0 33.967 15.238 33.967 33.967 c 0 18.73 -15.237 33.967 -33.967 33.967 H 3.414 L 11.949 64.411 z M 54.032 84.989 c -9.082 0 -17.74 -3.639 -24.1 -10.044 h 6.035 c 19.833 0 35.967 -16.135 35.967 -35.967 c 0 -7.291 -2.187 -14.077 -5.929 -19.75 C 79.092 24.158 88 36.829 88 51.021 c 0 9.073 -3.533 17.604 -9.949 24.019 c -0.188 0.188 -0.293 0.441 -0.293 0.707 s 0.105 0.52 0.293 0.707 l 8.535 8.535 H 54.032 z" style="stroke: none; stroke-width: 1; stroke-dasharray: none; stroke-linecap: butt; stroke-linejoin: miter; stroke-miterlimit: 10; fill: rgb(0,0,0); fill-rule: nonzero; opacity: 1;" transform=" matrix(1 0 0 1 0 0) " stroke-linecap="round" />
	<path d="M 52.188 23.99 H 19.741 c -0.552 0 -1 -0.448 -1 -1 s 0.448 -1 1 -1 h 32.448 c 0.553 0 1 0.448 1 1 S 52.741 23.99 52.188 23.99 z" style="stroke: none; stroke-width: 1; stroke-dasharray: none; stroke-linecap: butt; stroke-linejoin: miter; stroke-miterlimit: 10; fill: rgb(0,0,0); fill-rule: nonzero; opacity: 1;" transform=" matrix(1 0 0 1 0 0) " stroke-linecap="round" />
	<path d="M 52.188 33.99 H 19.741 c -0.552 0 -1 -0.448 -1 -1 s 0.448 -1 1 -1 h 32.448 c 0.553 0 1 0.448 1 1 S 52.741 33.99 52.188 33.99 z" style="stroke: none; stroke-width: 1; stroke-dasharray: none; stroke-linecap: butt; stroke-linejoin: miter; stroke-miterlimit: 10; fill: rgb(0,0,0); fill-rule: nonzero; opacity: 1;" transform=" matrix(1 0 0 1 0 0) " stroke-linecap="round" />
	<path d="M 52.188 43.99 H 19.741 c -0.552 0 -1 -0.448 -1 -1 s 0.448 -1 1 -1 h 32.448 c 0.553 0 1 0.448 1 1 S 52.741 43.99 52.188 43.99 z" style="stroke: none; stroke-width: 1; stroke-dasharray: none; stroke-linecap: butt; stroke-linejoin: miter; stroke-miterlimit: 10; fill: rgb(0,0,0); fill-rule: nonzero; opacity: 1;" transform=" matrix(1 0 0 1 0 0) " stroke-linecap="round" />
	<path d="M 36.254 53.99 H 19.741 c -0.552 0 -1 -0.447 -1 -1 s 0.448 -1 1 -1 h 16.514 c 0.552 0 1 0.447 1 1 S 36.807 53.99 36.254 53.99 z" style="stroke: none; stroke-width: 1; stroke-dasharray: none; stroke-linecap: butt; stroke-linejoin: miter; stroke-miterlimit: 10; fill: rgb(0,0,0); fill-rule: nonzero; opacity: 1;" transform=" matrix(1 0 0 1 0 0) " stroke-linecap="round" />
</g>
</svg>